%TF.GenerationSoftware,KiCad,Pcbnew,8.0.3*%
%TF.CreationDate,2024-11-22T15:21:49+07:00*%
%TF.ProjectId,oscilloscope,6f736369-6c6c-46f7-9363-6f70652e6b69,rev?*%
%TF.SameCoordinates,Original*%
%TF.FileFunction,Legend,Bot*%
%TF.FilePolarity,Positive*%
%FSLAX46Y46*%
G04 Gerber Fmt 4.6, Leading zero omitted, Abs format (unit mm)*
G04 Created by KiCad (PCBNEW 8.0.3) date 2024-11-22 15:21:49*
%MOMM*%
%LPD*%
G01*
G04 APERTURE LIST*
%ADD10C,0.150000*%
%ADD11C,0.120000*%
G04 APERTURE END LIST*
D10*
X267679525Y-112597319D02*
X267679525Y-113406842D01*
X267679525Y-113406842D02*
X267631906Y-113502080D01*
X267631906Y-113502080D02*
X267584287Y-113549700D01*
X267584287Y-113549700D02*
X267489049Y-113597319D01*
X267489049Y-113597319D02*
X267298573Y-113597319D01*
X267298573Y-113597319D02*
X267203335Y-113549700D01*
X267203335Y-113549700D02*
X267155716Y-113502080D01*
X267155716Y-113502080D02*
X267108097Y-113406842D01*
X267108097Y-113406842D02*
X267108097Y-112597319D01*
X266203335Y-112930652D02*
X266203335Y-113597319D01*
X266441430Y-112549700D02*
X266679525Y-113263985D01*
X266679525Y-113263985D02*
X266060478Y-113263985D01*
X80555715Y-97097319D02*
X80555715Y-96097319D01*
X80555715Y-96097319D02*
X80317620Y-96097319D01*
X80317620Y-96097319D02*
X80174763Y-96144938D01*
X80174763Y-96144938D02*
X80079525Y-96240176D01*
X80079525Y-96240176D02*
X80031906Y-96335414D01*
X80031906Y-96335414D02*
X79984287Y-96525890D01*
X79984287Y-96525890D02*
X79984287Y-96668747D01*
X79984287Y-96668747D02*
X80031906Y-96859223D01*
X80031906Y-96859223D02*
X80079525Y-96954461D01*
X80079525Y-96954461D02*
X80174763Y-97049700D01*
X80174763Y-97049700D02*
X80317620Y-97097319D01*
X80317620Y-97097319D02*
X80555715Y-97097319D01*
X79127144Y-96097319D02*
X79317620Y-96097319D01*
X79317620Y-96097319D02*
X79412858Y-96144938D01*
X79412858Y-96144938D02*
X79460477Y-96192557D01*
X79460477Y-96192557D02*
X79555715Y-96335414D01*
X79555715Y-96335414D02*
X79603334Y-96525890D01*
X79603334Y-96525890D02*
X79603334Y-96906842D01*
X79603334Y-96906842D02*
X79555715Y-97002080D01*
X79555715Y-97002080D02*
X79508096Y-97049700D01*
X79508096Y-97049700D02*
X79412858Y-97097319D01*
X79412858Y-97097319D02*
X79222382Y-97097319D01*
X79222382Y-97097319D02*
X79127144Y-97049700D01*
X79127144Y-97049700D02*
X79079525Y-97002080D01*
X79079525Y-97002080D02*
X79031906Y-96906842D01*
X79031906Y-96906842D02*
X79031906Y-96668747D01*
X79031906Y-96668747D02*
X79079525Y-96573509D01*
X79079525Y-96573509D02*
X79127144Y-96525890D01*
X79127144Y-96525890D02*
X79222382Y-96478271D01*
X79222382Y-96478271D02*
X79412858Y-96478271D01*
X79412858Y-96478271D02*
X79508096Y-96525890D01*
X79508096Y-96525890D02*
X79555715Y-96573509D01*
X79555715Y-96573509D02*
X79603334Y-96668747D01*
X80805715Y-94097319D02*
X80805715Y-93097319D01*
X80805715Y-93097319D02*
X80567620Y-93097319D01*
X80567620Y-93097319D02*
X80424763Y-93144938D01*
X80424763Y-93144938D02*
X80329525Y-93240176D01*
X80329525Y-93240176D02*
X80281906Y-93335414D01*
X80281906Y-93335414D02*
X80234287Y-93525890D01*
X80234287Y-93525890D02*
X80234287Y-93668747D01*
X80234287Y-93668747D02*
X80281906Y-93859223D01*
X80281906Y-93859223D02*
X80329525Y-93954461D01*
X80329525Y-93954461D02*
X80424763Y-94049700D01*
X80424763Y-94049700D02*
X80567620Y-94097319D01*
X80567620Y-94097319D02*
X80805715Y-94097319D01*
X79329525Y-93097319D02*
X79805715Y-93097319D01*
X79805715Y-93097319D02*
X79853334Y-93573509D01*
X79853334Y-93573509D02*
X79805715Y-93525890D01*
X79805715Y-93525890D02*
X79710477Y-93478271D01*
X79710477Y-93478271D02*
X79472382Y-93478271D01*
X79472382Y-93478271D02*
X79377144Y-93525890D01*
X79377144Y-93525890D02*
X79329525Y-93573509D01*
X79329525Y-93573509D02*
X79281906Y-93668747D01*
X79281906Y-93668747D02*
X79281906Y-93906842D01*
X79281906Y-93906842D02*
X79329525Y-94002080D01*
X79329525Y-94002080D02*
X79377144Y-94049700D01*
X79377144Y-94049700D02*
X79472382Y-94097319D01*
X79472382Y-94097319D02*
X79710477Y-94097319D01*
X79710477Y-94097319D02*
X79805715Y-94049700D01*
X79805715Y-94049700D02*
X79853334Y-94002080D01*
X63055715Y-104597319D02*
X63055715Y-103597319D01*
X63055715Y-103597319D02*
X62817620Y-103597319D01*
X62817620Y-103597319D02*
X62674763Y-103644938D01*
X62674763Y-103644938D02*
X62579525Y-103740176D01*
X62579525Y-103740176D02*
X62531906Y-103835414D01*
X62531906Y-103835414D02*
X62484287Y-104025890D01*
X62484287Y-104025890D02*
X62484287Y-104168747D01*
X62484287Y-104168747D02*
X62531906Y-104359223D01*
X62531906Y-104359223D02*
X62579525Y-104454461D01*
X62579525Y-104454461D02*
X62674763Y-104549700D01*
X62674763Y-104549700D02*
X62817620Y-104597319D01*
X62817620Y-104597319D02*
X63055715Y-104597319D01*
X61627144Y-103930652D02*
X61627144Y-104597319D01*
X61865239Y-103549700D02*
X62103334Y-104263985D01*
X62103334Y-104263985D02*
X61484287Y-104263985D01*
D11*
%TO.C,U4*%
X268827621Y-105232500D02*
X265067621Y-105232500D01*
X268827621Y-106492500D02*
X268827621Y-105232500D01*
X268827621Y-110792500D02*
X268827621Y-112052500D01*
X268827621Y-112052500D02*
X265067621Y-112052500D01*
X264027621Y-112282500D02*
X263547621Y-112282500D01*
X263787621Y-111952500D01*
X264027621Y-112282500D01*
G36*
X264027621Y-112282500D02*
G01*
X263547621Y-112282500D01*
X263787621Y-111952500D01*
X264027621Y-112282500D01*
G37*
%TO.C,D6*%
X77457621Y-93642500D02*
X77457621Y-95642500D01*
X81467621Y-93642500D02*
X77457621Y-93642500D01*
X81467621Y-95642500D02*
X77457621Y-95642500D01*
%TO.C,D5*%
X77707621Y-90642500D02*
X77707621Y-92642500D01*
X81717621Y-90642500D02*
X77707621Y-90642500D01*
X81717621Y-92642500D02*
X77707621Y-92642500D01*
%TO.C,D4*%
X59957621Y-101142500D02*
X59957621Y-103142500D01*
X63967621Y-101142500D02*
X59957621Y-101142500D01*
X63967621Y-103142500D02*
X59957621Y-103142500D01*
%TD*%
M02*
