%TF.GenerationSoftware,KiCad,Pcbnew,8.0.3*%
%TF.CreationDate,2024-11-22T15:21:49+07:00*%
%TF.ProjectId,oscilloscope,6f736369-6c6c-46f7-9363-6f70652e6b69,rev?*%
%TF.SameCoordinates,Original*%
%TF.FileFunction,Copper,L1,Top*%
%TF.FilePolarity,Positive*%
%FSLAX46Y46*%
G04 Gerber Fmt 4.6, Leading zero omitted, Abs format (unit mm)*
G04 Created by KiCad (PCBNEW 8.0.3) date 2024-11-22 15:21:49*
%MOMM*%
%LPD*%
G01*
G04 APERTURE LIST*
G04 Aperture macros list*
%AMRoundRect*
0 Rectangle with rounded corners*
0 $1 Rounding radius*
0 $2 $3 $4 $5 $6 $7 $8 $9 X,Y pos of 4 corners*
0 Add a 4 corners polygon primitive as box body*
4,1,4,$2,$3,$4,$5,$6,$7,$8,$9,$2,$3,0*
0 Add four circle primitives for the rounded corners*
1,1,$1+$1,$2,$3*
1,1,$1+$1,$4,$5*
1,1,$1+$1,$6,$7*
1,1,$1+$1,$8,$9*
0 Add four rect primitives between the rounded corners*
20,1,$1+$1,$2,$3,$4,$5,0*
20,1,$1+$1,$4,$5,$6,$7,0*
20,1,$1+$1,$6,$7,$8,$9,0*
20,1,$1+$1,$8,$9,$2,$3,0*%
%AMHorizOval*
0 Thick line with rounded ends*
0 $1 width*
0 $2 $3 position (X,Y) of the first rounded end (center of the circle)*
0 $4 $5 position (X,Y) of the second rounded end (center of the circle)*
0 Add line between two ends*
20,1,$1,$2,$3,$4,$5,0*
0 Add two circle primitives to create the rounded ends*
1,1,$1,$2,$3*
1,1,$1,$4,$5*%
G04 Aperture macros list end*
%TA.AperFunction,ComponentPad*%
%ADD10R,1.600000X1.600000*%
%TD*%
%TA.AperFunction,ComponentPad*%
%ADD11C,1.600000*%
%TD*%
%TA.AperFunction,ComponentPad*%
%ADD12R,1.700000X1.700000*%
%TD*%
%TA.AperFunction,ComponentPad*%
%ADD13O,1.700000X1.700000*%
%TD*%
%TA.AperFunction,ComponentPad*%
%ADD14O,1.600000X1.600000*%
%TD*%
%TA.AperFunction,ComponentPad*%
%ADD15R,1.500000X1.500000*%
%TD*%
%TA.AperFunction,ComponentPad*%
%ADD16O,1.500000X1.500000*%
%TD*%
%TA.AperFunction,ComponentPad*%
%ADD17O,3.200000X1.900000*%
%TD*%
%TA.AperFunction,ComponentPad*%
%ADD18R,2.000000X1.905000*%
%TD*%
%TA.AperFunction,ComponentPad*%
%ADD19O,2.000000X1.905000*%
%TD*%
%TA.AperFunction,ComponentPad*%
%ADD20C,2.600000*%
%TD*%
%TA.AperFunction,ComponentPad*%
%ADD21C,3.000000*%
%TD*%
%TA.AperFunction,ComponentPad*%
%ADD22C,2.400000*%
%TD*%
%TA.AperFunction,ComponentPad*%
%ADD23R,2.250000X2.250000*%
%TD*%
%TA.AperFunction,ComponentPad*%
%ADD24C,2.250000*%
%TD*%
%TA.AperFunction,ComponentPad*%
%ADD25C,2.000000*%
%TD*%
%TA.AperFunction,ComponentPad*%
%ADD26C,4.000000*%
%TD*%
%TA.AperFunction,ComponentPad*%
%ADD27R,1.524000X1.524000*%
%TD*%
%TA.AperFunction,ComponentPad*%
%ADD28C,1.524000*%
%TD*%
%TA.AperFunction,ComponentPad*%
%ADD29O,2.400000X2.400000*%
%TD*%
%TA.AperFunction,ComponentPad*%
%ADD30O,1.524000X1.524000*%
%TD*%
%TA.AperFunction,ComponentPad*%
%ADD31R,1.200000X1.200000*%
%TD*%
%TA.AperFunction,ComponentPad*%
%ADD32C,1.200000*%
%TD*%
%TA.AperFunction,ComponentPad*%
%ADD33RoundRect,0.250000X0.750000X1.550000X-0.750000X1.550000X-0.750000X-1.550000X0.750000X-1.550000X0*%
%TD*%
%TA.AperFunction,ComponentPad*%
%ADD34O,2.000000X3.600000*%
%TD*%
%TA.AperFunction,ComponentPad*%
%ADD35HorizOval,1.600000X0.000000X0.000000X0.000000X0.000000X0*%
%TD*%
%TA.AperFunction,ComponentPad*%
%ADD36R,2.800000X2.800000*%
%TD*%
%TA.AperFunction,ComponentPad*%
%ADD37C,2.800000*%
%TD*%
%TA.AperFunction,ComponentPad*%
%ADD38C,1.620000*%
%TD*%
%TA.AperFunction,ViaPad*%
%ADD39C,0.600000*%
%TD*%
%TA.AperFunction,Conductor*%
%ADD40C,1.000000*%
%TD*%
%TA.AperFunction,Conductor*%
%ADD41C,1.500000*%
%TD*%
G04 APERTURE END LIST*
D10*
%TO.P,C30,1*%
%TO.N,+5V*%
X71067621Y-100392500D03*
D11*
%TO.P,C30,2*%
%TO.N,GND*%
X73567621Y-100392500D03*
%TD*%
D12*
%TO.P,REF\u002A\u002A,1*%
%TO.N,GND*%
X133697621Y-141892500D03*
D13*
%TO.P,REF\u002A\u002A,2*%
%TO.N,-12V*%
X136237621Y-141892500D03*
%TO.P,REF\u002A\u002A,3*%
%TO.N,GND*%
X138777621Y-141892500D03*
%TO.P,REF\u002A\u002A,4*%
%TO.N,+12V*%
X141317621Y-141892500D03*
%TD*%
D11*
%TO.P,C3,1*%
%TO.N,/SETUP*%
X82827621Y-51782500D03*
%TO.P,C3,2*%
%TO.N,GND*%
X82827621Y-46782500D03*
%TD*%
D10*
%TO.P,C6,1*%
%TO.N,Net-(U1-VO)*%
X260067621Y-76142500D03*
D11*
%TO.P,C6,2*%
%TO.N,GND*%
X260067621Y-73642500D03*
%TD*%
%TO.P,C28,1*%
%TO.N,GND*%
X253067621Y-88692500D03*
%TO.P,C28,2*%
%TO.N,+12V*%
X253067621Y-86192500D03*
%TD*%
%TO.P,C27,1*%
%TO.N,Net-(D1--)*%
X255817621Y-60642500D03*
%TO.P,C27,2*%
%TO.N,GND*%
X258317621Y-60642500D03*
%TD*%
%TO.P,R9,1*%
%TO.N,GND*%
X114817621Y-120802500D03*
D14*
%TO.P,R9,2*%
%TO.N,Net-(SW5A-B)*%
X114817621Y-110642500D03*
%TD*%
D11*
%TO.P,R14,1*%
%TO.N,DC_MODE*%
X96067621Y-110522500D03*
D14*
%TO.P,R14,2*%
%TO.N,Net-(SW4A-B)*%
X96067621Y-120682500D03*
%TD*%
D10*
%TO.P,C7,1*%
%TO.N,Net-(D1-+)*%
X267567621Y-53642500D03*
D11*
%TO.P,C7,2*%
%TO.N,GND*%
X272567621Y-53642500D03*
%TD*%
D15*
%TO.P,D3,1,K*%
%TO.N,/ADC1_O*%
X140667621Y-77142500D03*
D16*
%TO.P,D3,2,A*%
%TO.N,GND*%
X140667621Y-84762500D03*
%TD*%
D11*
%TO.P,C2,1*%
%TO.N,/AUTO_STOP*%
X105327621Y-51902500D03*
%TO.P,C2,2*%
%TO.N,GND*%
X105327621Y-46902500D03*
%TD*%
D17*
%TO.P,SW1,1,1*%
%TO.N,GND*%
X42827621Y-46782500D03*
X55327621Y-46782500D03*
%TO.P,SW1,2,2*%
%TO.N,/MODE*%
X42827621Y-51782500D03*
X55327621Y-51782500D03*
%TD*%
D11*
%TO.P,R7,1*%
%TO.N,Net-(SW5A-B)*%
X100567621Y-110642500D03*
D14*
%TO.P,R7,2*%
%TO.N,Net-(SW5A-A)*%
X100567621Y-120802500D03*
%TD*%
D15*
%TO.P,D7,1,K*%
%TO.N,+5V*%
X136827621Y-63587500D03*
D16*
%TO.P,D7,2,A*%
%TO.N,/ADC2_O*%
X136827621Y-71207500D03*
%TD*%
D18*
%TO.P,U3,1,IN*%
%TO.N,+12V*%
X267567621Y-91102500D03*
D19*
%TO.P,U3,2,GND*%
%TO.N,GND*%
X267567621Y-93642500D03*
%TO.P,U3,3,OUT*%
%TO.N,+5V*%
X267567621Y-96182500D03*
%TD*%
D10*
%TO.P,U6,1*%
%TO.N,/MODE_PROTECT*%
X61567621Y-105892500D03*
D14*
%TO.P,U6,2,-*%
%TO.N,+5V*%
X61567621Y-108432500D03*
%TO.P,U6,3,+*%
%TO.N,Net-(D4-K)*%
X61567621Y-110972500D03*
%TO.P,U6,4,V-*%
%TO.N,GND*%
X61567621Y-113512500D03*
%TO.P,U6,5,+*%
%TO.N,unconnected-(U6B-+-Pad5)*%
X69187621Y-113512500D03*
%TO.P,U6,6,-*%
%TO.N,unconnected-(U6B---Pad6)*%
X69187621Y-110972500D03*
%TO.P,U6,7*%
%TO.N,unconnected-(U6-Pad7)*%
X69187621Y-108432500D03*
%TO.P,U6,8,V+*%
%TO.N,+5V*%
X69187621Y-105892500D03*
%TD*%
D11*
%TO.P,R17,1*%
%TO.N,Net-(U7--)*%
X133317621Y-116142500D03*
D14*
%TO.P,R17,2*%
%TO.N,/ADC2_O*%
X143477621Y-116142500D03*
%TD*%
D11*
%TO.P,C25,1*%
%TO.N,GND*%
X139067621Y-137142500D03*
%TO.P,C25,2*%
%TO.N,+12V*%
X141567621Y-137142500D03*
%TD*%
D12*
%TO.P,J2,1,Pin_1*%
%TO.N,+5V*%
X152067621Y-40642500D03*
D13*
%TO.P,J2,2,Pin_2*%
%TO.N,Net-(J2-Pin_2)*%
X152067621Y-43182500D03*
%TO.P,J2,3,Pin_3*%
%TO.N,+3.3V*%
X152067621Y-45722500D03*
%TD*%
D12*
%TO.P,J6,1,Pin_1*%
%TO.N,/NSS2*%
X122067621Y-40392500D03*
D13*
%TO.P,J6,2,Pin_2*%
%TO.N,/SCK2*%
X119527621Y-40392500D03*
%TO.P,J6,3,Pin_3*%
%TO.N,/MISO2*%
X116987621Y-40392500D03*
%TO.P,J6,4,Pin_4*%
%TO.N,/MOSI2*%
X114447621Y-40392500D03*
%TO.P,J6,5,Pin_5*%
%TO.N,unconnected-(J6-Pin_5-Pad5)*%
X111907621Y-40392500D03*
%TO.P,J6,6,Pin_6*%
%TO.N,+5V*%
X109367621Y-40392500D03*
%TO.P,J6,7,Pin_7*%
%TO.N,GND*%
X106827621Y-40392500D03*
%TO.P,J6,8,Pin_8*%
%TO.N,+3.3V*%
X104287621Y-40392500D03*
%TD*%
D20*
%TO.P,L2,1,1*%
%TO.N,Net-(U2-VO)*%
X231667621Y-88642500D03*
%TO.P,L2,2,2*%
%TO.N,-12V*%
X231667621Y-93642500D03*
%TD*%
D12*
%TO.P,J3,1,Pin_1*%
%TO.N,GND*%
X152067621Y-58182500D03*
D13*
%TO.P,J3,2,Pin_2*%
%TO.N,/TX3*%
X152067621Y-55642500D03*
%TO.P,J3,3,Pin_3*%
%TO.N,/RX3*%
X152067621Y-53102500D03*
%TO.P,J3,4,Pin_4*%
%TO.N,Net-(J2-Pin_2)*%
X152067621Y-50562500D03*
%TD*%
D17*
%TO.P,SW2,1,1*%
%TO.N,GND*%
X87827621Y-46902500D03*
X100327621Y-46902500D03*
%TO.P,SW2,2,2*%
%TO.N,/AUTO_STOP*%
X87827621Y-51902500D03*
X100327621Y-51902500D03*
%TD*%
D10*
%TO.P,U5,1*%
%TO.N,Net-(R10-Pad1)*%
X134267621Y-95842500D03*
D14*
%TO.P,U5,2,-*%
%TO.N,Net-(U5A--)*%
X134267621Y-98382500D03*
%TO.P,U5,3,+*%
%TO.N,Net-(SW5A-B)*%
X134267621Y-100922500D03*
%TO.P,U5,4,V-*%
%TO.N,-12V*%
X134267621Y-103462500D03*
%TO.P,U5,5,+*%
%TO.N,Net-(U5B-+)*%
X141887621Y-103462500D03*
%TO.P,U5,6,-*%
%TO.N,Net-(U5B--)*%
X141887621Y-100922500D03*
%TO.P,U5,7*%
%TO.N,/ADC1_O*%
X141887621Y-98382500D03*
%TO.P,U5,8,V+*%
%TO.N,+12V*%
X141887621Y-95842500D03*
%TD*%
D11*
%TO.P,C21,1*%
%TO.N,GND*%
X104817621Y-120892500D03*
%TO.P,C21,2*%
%TO.N,Net-(SW5A-B)*%
X104817621Y-118392500D03*
%TD*%
D21*
%TO.P,RELAY1,*%
%TO.N,*%
X90772621Y-100832500D03*
X43401621Y-100832500D03*
X90772621Y-136392500D03*
X43401621Y-136392500D03*
D22*
%TO.P,RELAY1,1,DC+*%
%TO.N,+5V*%
X43147621Y-106732500D03*
%TO.P,RELAY1,2,DC-*%
%TO.N,GND*%
X43147621Y-110542500D03*
%TO.P,RELAY1,3,IN1*%
%TO.N,/MODE_CONT*%
X43147621Y-114352500D03*
%TO.P,RELAY1,4,IN2*%
%TO.N,/MODE_PROTECT*%
X43147621Y-118162500D03*
%TO.P,RELAY1,5,NC1*%
%TO.N,AC_MODE*%
X86327621Y-102922500D03*
%TO.P,RELAY1,6,COM1*%
%TO.N,Net-(RELAY1-COM1)*%
X86327621Y-106732500D03*
%TO.P,RELAY1,7,NO1*%
%TO.N,DC_MODE*%
X86327621Y-110542500D03*
%TO.P,RELAY1,8,NC2*%
%TO.N,Net-(RELAY1-COM1)*%
X86327621Y-125782500D03*
%TO.P,RELAY1,9,COM2*%
%TO.N,Net-(J5-Pin_1)*%
X86327621Y-129592500D03*
%TO.P,RELAY1,10,NO2*%
%TO.N,unconnected-(RELAY1-NO2-Pad10)*%
X86327621Y-133402500D03*
%TD*%
D10*
%TO.P,C11,1*%
%TO.N,GND*%
X232817621Y-106142500D03*
D11*
%TO.P,C11,2*%
%TO.N,-12V*%
X230317621Y-106142500D03*
%TD*%
%TO.P,R10,1*%
%TO.N,Net-(R10-Pad1)*%
X127817621Y-108302500D03*
D14*
%TO.P,R10,2*%
%TO.N,Net-(U5A--)*%
X127817621Y-98142500D03*
%TD*%
D23*
%TO.P,SW6,1,1*%
%TO.N,GND*%
X69567621Y-118142500D03*
D24*
%TO.P,SW6,2,2*%
%TO.N,Net-(D4-K)*%
X69567621Y-124642500D03*
%TD*%
D10*
%TO.P,C13,1*%
%TO.N,+5V*%
X245067621Y-106142500D03*
D11*
%TO.P,C13,2*%
%TO.N,GND*%
X247567621Y-106142500D03*
%TD*%
D10*
%TO.P,C10,1*%
%TO.N,GND*%
X232567621Y-73642500D03*
D11*
%TO.P,C10,2*%
%TO.N,Net-(U2-VO)*%
X232567621Y-76142500D03*
%TD*%
%TO.P,C22,1*%
%TO.N,GND*%
X109817621Y-136392500D03*
%TO.P,C22,2*%
%TO.N,Net-(C22-Pad2)*%
X109817621Y-133892500D03*
%TD*%
D25*
%TO.P,C23,1*%
%TO.N,Net-(D4-K)*%
X61567621Y-123642500D03*
%TO.P,C23,2*%
%TO.N,GND*%
X61567621Y-118642500D03*
%TD*%
D10*
%TO.P,C8,1*%
%TO.N,GND*%
X260067621Y-53642500D03*
D11*
%TO.P,C8,2*%
%TO.N,Net-(D1--)*%
X255067621Y-53642500D03*
%TD*%
D26*
%TO.P,J5,1,Pin_1*%
%TO.N,Net-(J5-Pin_1)*%
X34567621Y-116642500D03*
%TO.P,J5,2,Pin_2*%
%TO.N,GND*%
X34567621Y-136642500D03*
%TD*%
D10*
%TO.P,C9,1*%
%TO.N,GND*%
X232567621Y-66142500D03*
D11*
%TO.P,C9,2*%
%TO.N,Net-(D1--)*%
X232567621Y-68642500D03*
%TD*%
D27*
%TO.P,SW5,1,A*%
%TO.N,Net-(SW5A-A)*%
X98067621Y-102842500D03*
D28*
%TO.P,SW5,2,B*%
%TO.N,Net-(SW5A-B)*%
X100567621Y-102842500D03*
%TO.P,SW5,3,A*%
%TO.N,GND*%
X98067621Y-99642500D03*
%TO.P,SW5,4,B*%
%TO.N,/AC_RANGE*%
X100567621Y-99642500D03*
%TO.P,SW5,5*%
%TO.N,N/C*%
X103067621Y-102842500D03*
%TO.P,SW5,6*%
X103067621Y-99642500D03*
%TD*%
D22*
%TO.P,R5,1*%
%TO.N,Net-(D1--)*%
X257567621Y-43642500D03*
D29*
%TO.P,R5,2*%
%TO.N,GND*%
X272807621Y-43642500D03*
%TD*%
D27*
%TO.P,STM32-1,1,B12*%
%TO.N,/NSS2*%
X128827621Y-41622500D03*
D30*
%TO.P,STM32-1,2,B13*%
%TO.N,/SCK2*%
X128827621Y-44162500D03*
D28*
%TO.P,STM32-1,3,B14*%
%TO.N,/MISO2*%
X128827621Y-46702500D03*
%TO.P,STM32-1,4,B15*%
%TO.N,/MOSI2*%
X128827621Y-49242500D03*
%TO.P,STM32-1,5,A8*%
%TO.N,/AUTO_STOP*%
X128827621Y-51782500D03*
%TO.P,STM32-1,6,A9*%
%TO.N,/SETUP*%
X128827621Y-54322500D03*
%TO.P,STM32-1,7,A10*%
%TO.N,/MODE*%
X128827621Y-56862500D03*
%TO.P,STM32-1,8,A11*%
%TO.N,/USB-*%
X128827621Y-59402500D03*
%TO.P,STM32-1,9,A12*%
%TO.N,/USB+*%
X128827621Y-61942500D03*
%TO.P,STM32-1,10,A15*%
%TO.N,unconnected-(STM32-1-A15-Pad10)*%
X128827621Y-64482500D03*
%TO.P,STM32-1,11,B3*%
%TO.N,/AC_RANGE*%
X128827621Y-67022500D03*
%TO.P,STM32-1,12,B4*%
%TO.N,/DC_RANGE*%
X128827621Y-69562500D03*
%TO.P,STM32-1,13,B5*%
%TO.N,unconnected-(STM32-1-B5-Pad13)*%
X128827621Y-72102500D03*
%TO.P,STM32-1,14,B6*%
%TO.N,/SDA*%
X128827621Y-74642500D03*
%TO.P,STM32-1,15,B7*%
%TO.N,/SCL*%
X128827621Y-77182500D03*
%TO.P,STM32-1,16,B8*%
%TO.N,/MODE_CONT*%
X128827621Y-79722500D03*
%TO.P,STM32-1,17,B9*%
%TO.N,/MODE_PROTECT*%
X128827621Y-82262500D03*
%TO.P,STM32-1,18,5V*%
%TO.N,+5V*%
X128827621Y-84802500D03*
%TO.P,STM32-1,19,GND*%
%TO.N,GND*%
X128827621Y-87342500D03*
%TO.P,STM32-1,20,3.3V*%
%TO.N,unconnected-(STM32-1-3.3V-Pad20)*%
X128827621Y-89882500D03*
%TO.P,STM32-1,21,VB*%
%TO.N,unconnected-(STM32-1-VB-Pad21)*%
X144067621Y-89882500D03*
%TO.P,STM32-1,22,C13*%
%TO.N,unconnected-(STM32-1-C13-Pad22)*%
X144067621Y-87342500D03*
%TO.P,STM32-1,23,C14*%
%TO.N,unconnected-(STM32-1-C14-Pad23)*%
X144067621Y-84802500D03*
%TO.P,STM32-1,24,C15*%
%TO.N,unconnected-(STM32-1-C15-Pad24)*%
X144067621Y-82262500D03*
%TO.P,STM32-1,25,A0*%
%TO.N,unconnected-(STM32-1-A0-Pad25)*%
X144067621Y-79722500D03*
%TO.P,STM32-1,26,A1*%
%TO.N,/ADC1_O*%
X144067621Y-77182500D03*
%TO.P,STM32-1,27,A2*%
%TO.N,/ADC2_O*%
X144067621Y-74642500D03*
%TO.P,STM32-1,28,A3*%
%TO.N,unconnected-(STM32-1-A3-Pad28)*%
X144067621Y-72102500D03*
%TO.P,STM32-1,29,A4*%
%TO.N,unconnected-(STM32-1-A4-Pad29)*%
X144067621Y-69562500D03*
%TO.P,STM32-1,30,A5*%
%TO.N,unconnected-(STM32-1-A5-Pad30)*%
X144067621Y-67022500D03*
%TO.P,STM32-1,31,A6*%
%TO.N,unconnected-(STM32-1-A6-Pad31)*%
X144067621Y-64482500D03*
%TO.P,STM32-1,32,A7*%
%TO.N,unconnected-(STM32-1-A7-Pad32)*%
X144067621Y-61942500D03*
%TO.P,STM32-1,33,B0*%
%TO.N,unconnected-(STM32-1-B0-Pad33)*%
X144067621Y-59402500D03*
%TO.P,STM32-1,34,B1*%
%TO.N,GND*%
X144067621Y-56862500D03*
%TO.P,STM32-1,35,B10*%
%TO.N,/TX3*%
X144067621Y-54322500D03*
%TO.P,STM32-1,36,B11*%
%TO.N,/RX3*%
X144067621Y-51782500D03*
%TO.P,STM32-1,37,R*%
%TO.N,unconnected-(STM32-1-R-Pad37)*%
X144067621Y-49242500D03*
%TO.P,STM32-1,38,3.3V*%
%TO.N,+3.3V*%
X144067621Y-46702500D03*
%TO.P,STM32-1,39,GND*%
%TO.N,GND*%
X144067621Y-44162500D03*
D27*
%TO.P,STM32-1,40,GND*%
X144067621Y-41622500D03*
%TD*%
D11*
%TO.P,R12,1*%
%TO.N,Net-(U5A--)*%
X109567621Y-110812500D03*
D14*
%TO.P,R12,2*%
%TO.N,Net-(C22-Pad2)*%
X109567621Y-120972500D03*
%TD*%
D11*
%TO.P,C18,1*%
%TO.N,GND*%
X139067621Y-133892500D03*
%TO.P,C18,2*%
%TO.N,+12V*%
X141567621Y-133892500D03*
%TD*%
D31*
%TO.P,C19,1*%
%TO.N,Net-(C19-Pad1)*%
X126817621Y-117892500D03*
D32*
%TO.P,C19,2*%
%TO.N,GND*%
X126817621Y-119892500D03*
%TD*%
D10*
%TO.P,C15,1*%
%TO.N,+3.3V*%
X252567621Y-106142500D03*
D11*
%TO.P,C15,2*%
%TO.N,GND*%
X255067621Y-106142500D03*
%TD*%
D33*
%TO.P,J4,1,Pin_1*%
%TO.N,GND*%
X242317621Y-40170000D03*
D34*
%TO.P,J4,2,Pin_2*%
%TO.N,Net-(J4-Pin_2)*%
X237317621Y-40170000D03*
%TO.P,J4,3,Pin_3*%
%TO.N,Net-(J4-Pin_3)*%
X232317621Y-40170000D03*
%TD*%
D27*
%TO.P,SW4,1,A*%
%TO.N,DC_MODE*%
X109967621Y-102742500D03*
D28*
%TO.P,SW4,2,B*%
%TO.N,Net-(SW4A-B)*%
X112467621Y-102742500D03*
%TO.P,SW4,3,A*%
%TO.N,GND*%
X109967621Y-99542500D03*
%TO.P,SW4,4,B*%
%TO.N,/DC_RANGE*%
X112467621Y-99542500D03*
%TO.P,SW4,5*%
%TO.N,N/C*%
X114967621Y-102742500D03*
%TO.P,SW4,6*%
X114967621Y-99542500D03*
%TD*%
D11*
%TO.P,C20,1*%
%TO.N,AC_MODE*%
X82067621Y-103142500D03*
%TO.P,C20,2*%
%TO.N,Net-(SW5A-A)*%
X79567621Y-103142500D03*
%TD*%
%TO.P,R1,1*%
%TO.N,+5V*%
X54539467Y-69142500D03*
D35*
%TO.P,R1,2*%
%TO.N,/MODE*%
X65315774Y-58366193D03*
%TD*%
D15*
%TO.P,D2,1,K*%
%TO.N,+5V*%
X137167621Y-84772500D03*
D16*
%TO.P,D2,2,A*%
%TO.N,/ADC1_O*%
X137167621Y-77152500D03*
%TD*%
D10*
%TO.P,C4,1*%
%TO.N,+12V*%
X237567621Y-106142500D03*
D11*
%TO.P,C4,2*%
%TO.N,GND*%
X240067621Y-106142500D03*
%TD*%
%TO.P,C1,1*%
%TO.N,/MODE*%
X60327621Y-51782500D03*
%TO.P,C1,2*%
%TO.N,GND*%
X60327621Y-46782500D03*
%TD*%
D36*
%TO.P,D1,1,+*%
%TO.N,Net-(D1-+)*%
X245317621Y-50392500D03*
D37*
%TO.P,D1,2*%
%TO.N,Net-(J4-Pin_2)*%
X240237621Y-50392500D03*
%TO.P,D1,3,-*%
%TO.N,Net-(D1--)*%
X235157621Y-50392500D03*
%TO.P,D1,4*%
%TO.N,Net-(J4-Pin_3)*%
X230077621Y-50392500D03*
%TD*%
D11*
%TO.P,C29,1*%
%TO.N,GND*%
X252967621Y-95842500D03*
%TO.P,C29,2*%
%TO.N,+5V*%
X252967621Y-98342500D03*
%TD*%
%TO.P,C24,1*%
%TO.N,-12V*%
X136317621Y-137142500D03*
%TO.P,C24,2*%
%TO.N,GND*%
X133817621Y-137142500D03*
%TD*%
D10*
%TO.P,C5,1*%
%TO.N,Net-(D1-+)*%
X260067621Y-66142500D03*
D11*
%TO.P,C5,2*%
%TO.N,GND*%
X260067621Y-68642500D03*
%TD*%
D18*
%TO.P,U2,1,GND*%
%TO.N,GND*%
X241067621Y-68642500D03*
D19*
%TO.P,U2,2,VI*%
%TO.N,Net-(D1--)*%
X241067621Y-71182500D03*
%TO.P,U2,3,VO*%
%TO.N,Net-(U2-VO)*%
X241067621Y-73722500D03*
%TD*%
D11*
%TO.P,R6,1*%
%TO.N,Net-(U5B-+)*%
X143487621Y-112142500D03*
D14*
%TO.P,R6,2*%
%TO.N,Net-(C19-Pad1)*%
X133327621Y-112142500D03*
%TD*%
D11*
%TO.P,C26,1*%
%TO.N,GND*%
X272067621Y-60392500D03*
%TO.P,C26,2*%
%TO.N,Net-(D1-+)*%
X269567621Y-60392500D03*
%TD*%
%TO.P,C17,1*%
%TO.N,-12V*%
X136317621Y-133892500D03*
%TO.P,C17,2*%
%TO.N,GND*%
X133817621Y-133892500D03*
%TD*%
D10*
%TO.P,C14,1*%
%TO.N,+5V*%
X259567621Y-98642500D03*
D11*
%TO.P,C14,2*%
%TO.N,GND*%
X259567621Y-96142500D03*
%TD*%
D10*
%TO.P,U7,1,VOS*%
%TO.N,unconnected-(U7-VOS-Pad1)*%
X134197621Y-121122500D03*
D14*
%TO.P,U7,2,-*%
%TO.N,Net-(U7--)*%
X134197621Y-123662500D03*
%TO.P,U7,3,+*%
%TO.N,Net-(U7-+)*%
X134197621Y-126202500D03*
%TO.P,U7,4,V-*%
%TO.N,-12V*%
X134197621Y-128742500D03*
%TO.P,U7,5,NC*%
%TO.N,unconnected-(U7-NC-Pad5)*%
X141817621Y-128742500D03*
%TO.P,U7,6*%
%TO.N,/ADC2_O*%
X141817621Y-126202500D03*
%TO.P,U7,7,V+*%
%TO.N,+12V*%
X141817621Y-123662500D03*
%TO.P,U7,8,VOS*%
%TO.N,unconnected-(U7-VOS-Pad8)*%
X141817621Y-121122500D03*
%TD*%
D20*
%TO.P,L1,1,1*%
%TO.N,Net-(U1-VO)*%
X242567621Y-88642500D03*
%TO.P,L1,2,2*%
%TO.N,+12V*%
X242567621Y-93642500D03*
%TD*%
D21*
%TO.P,LCD1,*%
%TO.N,*%
X44328521Y-62932500D03*
X44328521Y-93933200D03*
X119327101Y-93933200D03*
X119327621Y-62932500D03*
D12*
%TO.P,LCD1,1,GND*%
%TO.N,GND*%
X49447621Y-66782500D03*
D13*
%TO.P,LCD1,2,VCC*%
%TO.N,+5V*%
X49447621Y-69322500D03*
%TO.P,LCD1,3,SDA*%
%TO.N,/SDA*%
X49447621Y-71862500D03*
%TO.P,LCD1,4,SCL*%
%TO.N,/SCL*%
X49447621Y-74402500D03*
%TD*%
D38*
%TO.P,RV1,1,1*%
%TO.N,+5V*%
X124067621Y-99142500D03*
%TO.P,RV1,2,2*%
%TO.N,Net-(C19-Pad1)*%
X121567621Y-111142500D03*
%TO.P,RV1,3,3*%
%TO.N,GND*%
X119067621Y-99142500D03*
%TD*%
D18*
%TO.P,U1,1,VI*%
%TO.N,Net-(D1-+)*%
X267567621Y-68602500D03*
D19*
%TO.P,U1,2,GND*%
%TO.N,GND*%
X267567621Y-71142500D03*
%TO.P,U1,3,VO*%
%TO.N,Net-(U1-VO)*%
X267567621Y-73682500D03*
%TD*%
D11*
%TO.P,R11,1*%
%TO.N,/ADC1_O*%
X148567621Y-98392500D03*
D14*
%TO.P,R11,2*%
%TO.N,Net-(U5B--)*%
X148567621Y-108552500D03*
%TD*%
D11*
%TO.P,R8,1*%
%TO.N,Net-(U5B-+)*%
X143567621Y-108142500D03*
D14*
%TO.P,R8,2*%
%TO.N,Net-(R10-Pad1)*%
X133407621Y-108142500D03*
%TD*%
D15*
%TO.P,D8,1,K*%
%TO.N,/ADC2_O*%
X140327621Y-71217500D03*
D16*
%TO.P,D8,2,A*%
%TO.N,GND*%
X140327621Y-63597500D03*
%TD*%
D11*
%TO.P,R16,1*%
%TO.N,GND*%
X96067621Y-136722500D03*
D14*
%TO.P,R16,2*%
%TO.N,Net-(SW4A-B)*%
X96067621Y-126562500D03*
%TD*%
D11*
%TO.P,R3,1*%
%TO.N,+5V*%
X62667621Y-69142500D03*
D35*
%TO.P,R3,2*%
%TO.N,/SETUP*%
X73443928Y-58366193D03*
%TD*%
D17*
%TO.P,SW3,1,1*%
%TO.N,GND*%
X65327621Y-46902500D03*
X77827621Y-46902500D03*
%TO.P,SW3,2,2*%
%TO.N,/SETUP*%
X65327621Y-51902500D03*
X77827621Y-51902500D03*
%TD*%
D12*
%TO.P,REF\u002A\u002A,1*%
%TO.N,+3.3V*%
X245607621Y-116142500D03*
D13*
%TO.P,REF\u002A\u002A,2*%
%TO.N,GND*%
X243067621Y-116142500D03*
%TO.P,REF\u002A\u002A,3*%
%TO.N,+5V*%
X240527621Y-116142500D03*
%TO.P,REF\u002A\u002A,4*%
%TO.N,GND*%
X237987621Y-116142500D03*
%TO.P,REF\u002A\u002A,5*%
%TO.N,+12V*%
X235447621Y-116142500D03*
%TO.P,REF\u002A\u002A,6*%
%TO.N,GND*%
X232907621Y-116142500D03*
%TO.P,REF\u002A\u002A,7*%
%TO.N,-12V*%
X230367621Y-116142500D03*
%TD*%
D11*
%TO.P,R13,1*%
%TO.N,+5V*%
X43197621Y-89142500D03*
D14*
%TO.P,R13,2*%
%TO.N,/MODE_PROTECT*%
X58437621Y-89142500D03*
%TD*%
D10*
%TO.P,C12,1*%
%TO.N,+12V*%
X259817621Y-86392500D03*
D11*
%TO.P,C12,2*%
%TO.N,GND*%
X259817621Y-88892500D03*
%TD*%
%TO.P,C16,1*%
%TO.N,GND*%
X73067621Y-94892500D03*
%TO.P,C16,2*%
%TO.N,+5V*%
X70567621Y-94892500D03*
%TD*%
D22*
%TO.P,R4,1*%
%TO.N,Net-(D1-+)*%
X257567621Y-35642500D03*
D29*
%TO.P,R4,2*%
%TO.N,GND*%
X272807621Y-35642500D03*
%TD*%
D11*
%TO.P,R15,1*%
%TO.N,Net-(SW4A-B)*%
X106817621Y-126642500D03*
D14*
%TO.P,R15,2*%
%TO.N,Net-(U7-+)*%
X122057621Y-126642500D03*
%TD*%
D11*
%TO.P,R2,1*%
%TO.N,+5V*%
X71151314Y-68978807D03*
D35*
%TO.P,R2,2*%
%TO.N,/AUTO_STOP*%
X81927621Y-58202500D03*
%TD*%
D39*
%TO.N,Net-(SW4A-B)*%
X110817621Y-105892500D03*
%TO.N,DC_MODE*%
X108067621Y-104642500D03*
%TO.N,Net-(RELAY1-COM1)*%
X82567621Y-108142500D03*
X82067621Y-124642500D03*
%TO.N,/SDA*%
X101567621Y-74652500D03*
X91067621Y-73642500D03*
%TO.N,/SCL*%
X101567621Y-77182500D03*
X90827621Y-76902500D03*
%TO.N,/ADC1_O*%
X148567621Y-92392500D03*
X86567621Y-91642500D03*
%TO.N,/MODE_PROTECT*%
X101667621Y-82242500D03*
X59267621Y-82242500D03*
%TO.N,/ADC2_O*%
X86567621Y-94642500D03*
X153067621Y-93892500D03*
%TO.N,/MODE_CONT*%
X54067621Y-79642500D03*
X101567621Y-79702500D03*
%TO.N,/DC_RANGE*%
X112567621Y-71642500D03*
X112567621Y-90142500D03*
%TO.N,/AC_RANGE*%
X106567621Y-90142500D03*
X106567621Y-71642500D03*
%TO.N,Net-(R10-Pad1)*%
X131617621Y-95842500D03*
X130817621Y-108142500D03*
%TD*%
D40*
%TO.N,Net-(SW4A-B)*%
X96067621Y-119392500D02*
X96067621Y-120682500D01*
X108067621Y-108642500D02*
X106817621Y-108642500D01*
X110817621Y-105892500D02*
X108067621Y-108642500D01*
X106817621Y-108642500D02*
X96067621Y-119392500D01*
%TO.N,DC_MODE*%
X106067621Y-106642500D02*
X108067621Y-104642500D01*
%TO.N,Net-(RELAY1-COM1)*%
X82067621Y-124642500D02*
X82067621Y-108642500D01*
X82067621Y-108642500D02*
X82567621Y-108142500D01*
%TO.N,/SDA*%
X92077621Y-74652500D02*
X91067621Y-73642500D01*
X101567621Y-74652500D02*
X92077621Y-74652500D01*
%TO.N,/SCL*%
X91107621Y-77182500D02*
X90827621Y-76902500D01*
X101567621Y-77182500D02*
X91107621Y-77182500D01*
%TO.N,/ADC1_O*%
X128845776Y-92392500D02*
X148567621Y-92392500D01*
X118082267Y-91642500D02*
X118291567Y-91433200D01*
X118291567Y-91433200D02*
X127886476Y-91433200D01*
X127886476Y-91433200D02*
X128845776Y-92392500D01*
X86567621Y-91642500D02*
X118082267Y-91642500D01*
%TO.N,/MODE_PROTECT*%
X101667621Y-82242500D02*
X59267621Y-82242500D01*
%TO.N,/ADC2_O*%
X127895776Y-96342500D02*
X130345776Y-93892500D01*
X86567621Y-94642500D02*
X115082267Y-94642500D01*
X126981336Y-96433200D02*
X127072036Y-96342500D01*
X127072036Y-96342500D02*
X127895776Y-96342500D01*
X116872967Y-96433200D02*
X126981336Y-96433200D01*
X115082267Y-94642500D02*
X116872967Y-96433200D01*
X130345776Y-93892500D02*
X153067621Y-93892500D01*
%TO.N,DC_MODE*%
X96067621Y-110522500D02*
X96067621Y-109022500D01*
X98447621Y-106642500D02*
X106067621Y-106642500D01*
X96067621Y-109022500D02*
X98447621Y-106642500D01*
D41*
%TO.N,/MODE_CONT*%
X54067621Y-79642500D02*
X54127621Y-79702500D01*
D40*
X54127621Y-79702500D02*
X101567621Y-79702500D01*
%TO.N,/DC_RANGE*%
X112567621Y-90142500D02*
X112567621Y-71642500D01*
%TO.N,/AC_RANGE*%
X106567621Y-90142500D02*
X106567621Y-71642500D01*
%TO.N,Net-(R10-Pad1)*%
X131617621Y-95842500D02*
X131567621Y-95892500D01*
X131567621Y-95892500D02*
X131567621Y-107392500D01*
X131567621Y-107392500D02*
X130817621Y-108142500D01*
%TD*%
M02*
