%TF.GenerationSoftware,KiCad,Pcbnew,8.0.3*%
%TF.CreationDate,2024-11-22T15:21:49+07:00*%
%TF.ProjectId,oscilloscope,6f736369-6c6c-46f7-9363-6f70652e6b69,rev?*%
%TF.SameCoordinates,Original*%
%TF.FileFunction,Soldermask,Top*%
%TF.FilePolarity,Negative*%
%FSLAX46Y46*%
G04 Gerber Fmt 4.6, Leading zero omitted, Abs format (unit mm)*
G04 Created by KiCad (PCBNEW 8.0.3) date 2024-11-22 15:21:49*
%MOMM*%
%LPD*%
G01*
G04 APERTURE LIST*
G04 Aperture macros list*
%AMRoundRect*
0 Rectangle with rounded corners*
0 $1 Rounding radius*
0 $2 $3 $4 $5 $6 $7 $8 $9 X,Y pos of 4 corners*
0 Add a 4 corners polygon primitive as box body*
4,1,4,$2,$3,$4,$5,$6,$7,$8,$9,$2,$3,0*
0 Add four circle primitives for the rounded corners*
1,1,$1+$1,$2,$3*
1,1,$1+$1,$4,$5*
1,1,$1+$1,$6,$7*
1,1,$1+$1,$8,$9*
0 Add four rect primitives between the rounded corners*
20,1,$1+$1,$2,$3,$4,$5,0*
20,1,$1+$1,$4,$5,$6,$7,0*
20,1,$1+$1,$6,$7,$8,$9,0*
20,1,$1+$1,$8,$9,$2,$3,0*%
%AMHorizOval*
0 Thick line with rounded ends*
0 $1 width*
0 $2 $3 position (X,Y) of the first rounded end (center of the circle)*
0 $4 $5 position (X,Y) of the second rounded end (center of the circle)*
0 Add line between two ends*
20,1,$1,$2,$3,$4,$5,0*
0 Add two circle primitives to create the rounded ends*
1,1,$1,$2,$3*
1,1,$1,$4,$5*%
G04 Aperture macros list end*
%ADD10C,0.100000*%
%ADD11R,1.600000X1.600000*%
%ADD12C,1.600000*%
%ADD13R,1.700000X1.700000*%
%ADD14O,1.700000X1.700000*%
%ADD15O,1.600000X1.600000*%
%ADD16R,1.500000X1.500000*%
%ADD17O,1.500000X1.500000*%
%ADD18O,3.200000X1.900000*%
%ADD19R,2.000000X1.905000*%
%ADD20O,2.000000X1.905000*%
%ADD21C,2.600000*%
%ADD22C,3.000000*%
%ADD23C,2.400000*%
%ADD24R,2.250000X2.250000*%
%ADD25C,2.250000*%
%ADD26C,2.000000*%
%ADD27C,4.000000*%
%ADD28R,1.524000X1.524000*%
%ADD29C,1.524000*%
%ADD30O,2.400000X2.400000*%
%ADD31O,1.524000X1.524000*%
%ADD32R,1.200000X1.200000*%
%ADD33C,1.200000*%
%ADD34RoundRect,0.250000X0.750000X1.550000X-0.750000X1.550000X-0.750000X-1.550000X0.750000X-1.550000X0*%
%ADD35O,2.000000X3.600000*%
%ADD36HorizOval,1.600000X0.000000X0.000000X0.000000X0.000000X0*%
%ADD37R,2.800000X2.800000*%
%ADD38C,2.800000*%
%ADD39C,1.620000*%
G04 APERTURE END LIST*
%TO.C,SW5*%
D10*
X97167621Y-103742500D02*
X104067621Y-103742500D01*
X104067621Y-98742500D01*
X97167621Y-98742500D01*
X97167621Y-103742500D01*
%TO.C,SW4*%
X109067621Y-103642500D02*
X115967621Y-103642500D01*
X115967621Y-98642500D01*
X109067621Y-98642500D01*
X109067621Y-103642500D01*
%TD*%
D11*
%TO.C,C30*%
X71067621Y-100392500D03*
D12*
X73567621Y-100392500D03*
%TD*%
D13*
%TO.C,REF\u002A\u002A*%
X133697621Y-141892500D03*
D14*
X136237621Y-141892500D03*
X138777621Y-141892500D03*
X141317621Y-141892500D03*
%TD*%
D12*
%TO.C,C3*%
X82827621Y-51782500D03*
X82827621Y-46782500D03*
%TD*%
D11*
%TO.C,C6*%
X260067621Y-76142500D03*
D12*
X260067621Y-73642500D03*
%TD*%
%TO.C,C28*%
X253067621Y-88692500D03*
X253067621Y-86192500D03*
%TD*%
%TO.C,C27*%
X255817621Y-60642500D03*
X258317621Y-60642500D03*
%TD*%
%TO.C,R9*%
X114817621Y-120802500D03*
D15*
X114817621Y-110642500D03*
%TD*%
D12*
%TO.C,R14*%
X96067621Y-110522500D03*
D15*
X96067621Y-120682500D03*
%TD*%
D11*
%TO.C,C7*%
X267567621Y-53642500D03*
D12*
X272567621Y-53642500D03*
%TD*%
D16*
%TO.C,D3*%
X140667621Y-77142500D03*
D17*
X140667621Y-84762500D03*
%TD*%
D12*
%TO.C,C2*%
X105327621Y-51902500D03*
X105327621Y-46902500D03*
%TD*%
D18*
%TO.C,SW1*%
X42827621Y-46782500D03*
X55327621Y-46782500D03*
X42827621Y-51782500D03*
X55327621Y-51782500D03*
%TD*%
D12*
%TO.C,R7*%
X100567621Y-110642500D03*
D15*
X100567621Y-120802500D03*
%TD*%
D16*
%TO.C,D7*%
X136827621Y-63587500D03*
D17*
X136827621Y-71207500D03*
%TD*%
D19*
%TO.C,U3*%
X267567621Y-91102500D03*
D20*
X267567621Y-93642500D03*
X267567621Y-96182500D03*
%TD*%
D11*
%TO.C,U6*%
X61567621Y-105892500D03*
D15*
X61567621Y-108432500D03*
X61567621Y-110972500D03*
X61567621Y-113512500D03*
X69187621Y-113512500D03*
X69187621Y-110972500D03*
X69187621Y-108432500D03*
X69187621Y-105892500D03*
%TD*%
D12*
%TO.C,R17*%
X133317621Y-116142500D03*
D15*
X143477621Y-116142500D03*
%TD*%
D12*
%TO.C,C25*%
X139067621Y-137142500D03*
X141567621Y-137142500D03*
%TD*%
D13*
%TO.C,J2*%
X152067621Y-40642500D03*
D14*
X152067621Y-43182500D03*
X152067621Y-45722500D03*
%TD*%
D13*
%TO.C,J6*%
X122067621Y-40392500D03*
D14*
X119527621Y-40392500D03*
X116987621Y-40392500D03*
X114447621Y-40392500D03*
X111907621Y-40392500D03*
X109367621Y-40392500D03*
X106827621Y-40392500D03*
X104287621Y-40392500D03*
%TD*%
D21*
%TO.C,L2*%
X231667621Y-88642500D03*
X231667621Y-93642500D03*
%TD*%
D13*
%TO.C,J3*%
X152067621Y-58182500D03*
D14*
X152067621Y-55642500D03*
X152067621Y-53102500D03*
X152067621Y-50562500D03*
%TD*%
D18*
%TO.C,SW2*%
X87827621Y-46902500D03*
X100327621Y-46902500D03*
X87827621Y-51902500D03*
X100327621Y-51902500D03*
%TD*%
D11*
%TO.C,U5*%
X134267621Y-95842500D03*
D15*
X134267621Y-98382500D03*
X134267621Y-100922500D03*
X134267621Y-103462500D03*
X141887621Y-103462500D03*
X141887621Y-100922500D03*
X141887621Y-98382500D03*
X141887621Y-95842500D03*
%TD*%
D12*
%TO.C,C21*%
X104817621Y-120892500D03*
X104817621Y-118392500D03*
%TD*%
D22*
%TO.C,RELAY1*%
X90772621Y-100832500D03*
X43401621Y-100832500D03*
X90772621Y-136392500D03*
X43401621Y-136392500D03*
D23*
X43147621Y-106732500D03*
X43147621Y-110542500D03*
X43147621Y-114352500D03*
X43147621Y-118162500D03*
X86327621Y-102922500D03*
X86327621Y-106732500D03*
X86327621Y-110542500D03*
X86327621Y-125782500D03*
X86327621Y-129592500D03*
X86327621Y-133402500D03*
%TD*%
D11*
%TO.C,C11*%
X232817621Y-106142500D03*
D12*
X230317621Y-106142500D03*
%TD*%
%TO.C,R10*%
X127817621Y-108302500D03*
D15*
X127817621Y-98142500D03*
%TD*%
D24*
%TO.C,SW6*%
X69567621Y-118142500D03*
D25*
X69567621Y-124642500D03*
%TD*%
D11*
%TO.C,C13*%
X245067621Y-106142500D03*
D12*
X247567621Y-106142500D03*
%TD*%
D11*
%TO.C,C10*%
X232567621Y-73642500D03*
D12*
X232567621Y-76142500D03*
%TD*%
%TO.C,C22*%
X109817621Y-136392500D03*
X109817621Y-133892500D03*
%TD*%
D26*
%TO.C,C23*%
X61567621Y-123642500D03*
X61567621Y-118642500D03*
%TD*%
D11*
%TO.C,C8*%
X260067621Y-53642500D03*
D12*
X255067621Y-53642500D03*
%TD*%
D27*
%TO.C,J5*%
X34567621Y-116642500D03*
X34567621Y-136642500D03*
%TD*%
D11*
%TO.C,C9*%
X232567621Y-66142500D03*
D12*
X232567621Y-68642500D03*
%TD*%
D28*
%TO.C,SW5*%
X98067621Y-102842500D03*
D29*
X100567621Y-102842500D03*
X98067621Y-99642500D03*
X100567621Y-99642500D03*
X103067621Y-102842500D03*
X103067621Y-99642500D03*
%TD*%
D23*
%TO.C,R5*%
X257567621Y-43642500D03*
D30*
X272807621Y-43642500D03*
%TD*%
D28*
%TO.C,STM32-1*%
X128827621Y-41622500D03*
D31*
X128827621Y-44162500D03*
D29*
X128827621Y-46702500D03*
X128827621Y-49242500D03*
X128827621Y-51782500D03*
X128827621Y-54322500D03*
X128827621Y-56862500D03*
X128827621Y-59402500D03*
X128827621Y-61942500D03*
X128827621Y-64482500D03*
X128827621Y-67022500D03*
X128827621Y-69562500D03*
X128827621Y-72102500D03*
X128827621Y-74642500D03*
X128827621Y-77182500D03*
X128827621Y-79722500D03*
X128827621Y-82262500D03*
X128827621Y-84802500D03*
X128827621Y-87342500D03*
X128827621Y-89882500D03*
X144067621Y-89882500D03*
X144067621Y-87342500D03*
X144067621Y-84802500D03*
X144067621Y-82262500D03*
X144067621Y-79722500D03*
X144067621Y-77182500D03*
X144067621Y-74642500D03*
X144067621Y-72102500D03*
X144067621Y-69562500D03*
X144067621Y-67022500D03*
X144067621Y-64482500D03*
X144067621Y-61942500D03*
X144067621Y-59402500D03*
X144067621Y-56862500D03*
X144067621Y-54322500D03*
X144067621Y-51782500D03*
X144067621Y-49242500D03*
X144067621Y-46702500D03*
X144067621Y-44162500D03*
D28*
X144067621Y-41622500D03*
%TD*%
D12*
%TO.C,R12*%
X109567621Y-110812500D03*
D15*
X109567621Y-120972500D03*
%TD*%
D12*
%TO.C,C18*%
X139067621Y-133892500D03*
X141567621Y-133892500D03*
%TD*%
D32*
%TO.C,C19*%
X126817621Y-117892500D03*
D33*
X126817621Y-119892500D03*
%TD*%
D11*
%TO.C,C15*%
X252567621Y-106142500D03*
D12*
X255067621Y-106142500D03*
%TD*%
D34*
%TO.C,J4*%
X242317621Y-40170000D03*
D35*
X237317621Y-40170000D03*
X232317621Y-40170000D03*
%TD*%
D28*
%TO.C,SW4*%
X109967621Y-102742500D03*
D29*
X112467621Y-102742500D03*
X109967621Y-99542500D03*
X112467621Y-99542500D03*
X114967621Y-102742500D03*
X114967621Y-99542500D03*
%TD*%
D12*
%TO.C,C20*%
X82067621Y-103142500D03*
X79567621Y-103142500D03*
%TD*%
%TO.C,R1*%
X54539467Y-69142500D03*
D36*
X65315774Y-58366193D03*
%TD*%
D16*
%TO.C,D2*%
X137167621Y-84772500D03*
D17*
X137167621Y-77152500D03*
%TD*%
D11*
%TO.C,C4*%
X237567621Y-106142500D03*
D12*
X240067621Y-106142500D03*
%TD*%
%TO.C,C1*%
X60327621Y-51782500D03*
X60327621Y-46782500D03*
%TD*%
D37*
%TO.C,D1*%
X245317621Y-50392500D03*
D38*
X240237621Y-50392500D03*
X235157621Y-50392500D03*
X230077621Y-50392500D03*
%TD*%
D12*
%TO.C,C29*%
X252967621Y-95842500D03*
X252967621Y-98342500D03*
%TD*%
%TO.C,C24*%
X136317621Y-137142500D03*
X133817621Y-137142500D03*
%TD*%
D11*
%TO.C,C5*%
X260067621Y-66142500D03*
D12*
X260067621Y-68642500D03*
%TD*%
D19*
%TO.C,U2*%
X241067621Y-68642500D03*
D20*
X241067621Y-71182500D03*
X241067621Y-73722500D03*
%TD*%
D12*
%TO.C,R6*%
X143487621Y-112142500D03*
D15*
X133327621Y-112142500D03*
%TD*%
D12*
%TO.C,C26*%
X272067621Y-60392500D03*
X269567621Y-60392500D03*
%TD*%
%TO.C,C17*%
X136317621Y-133892500D03*
X133817621Y-133892500D03*
%TD*%
D11*
%TO.C,C14*%
X259567621Y-98642500D03*
D12*
X259567621Y-96142500D03*
%TD*%
D11*
%TO.C,U7*%
X134197621Y-121122500D03*
D15*
X134197621Y-123662500D03*
X134197621Y-126202500D03*
X134197621Y-128742500D03*
X141817621Y-128742500D03*
X141817621Y-126202500D03*
X141817621Y-123662500D03*
X141817621Y-121122500D03*
%TD*%
D21*
%TO.C,L1*%
X242567621Y-88642500D03*
X242567621Y-93642500D03*
%TD*%
D22*
%TO.C,LCD1*%
X44328521Y-62932500D03*
X44328521Y-93933200D03*
X119327101Y-93933200D03*
X119327621Y-62932500D03*
D13*
X49447621Y-66782500D03*
D14*
X49447621Y-69322500D03*
X49447621Y-71862500D03*
X49447621Y-74402500D03*
%TD*%
D39*
%TO.C,RV1*%
X124067621Y-99142500D03*
X121567621Y-111142500D03*
X119067621Y-99142500D03*
%TD*%
D19*
%TO.C,U1*%
X267567621Y-68602500D03*
D20*
X267567621Y-71142500D03*
X267567621Y-73682500D03*
%TD*%
D12*
%TO.C,R11*%
X148567621Y-98392500D03*
D15*
X148567621Y-108552500D03*
%TD*%
D12*
%TO.C,R8*%
X143567621Y-108142500D03*
D15*
X133407621Y-108142500D03*
%TD*%
D16*
%TO.C,D8*%
X140327621Y-71217500D03*
D17*
X140327621Y-63597500D03*
%TD*%
D12*
%TO.C,R16*%
X96067621Y-136722500D03*
D15*
X96067621Y-126562500D03*
%TD*%
D12*
%TO.C,R3*%
X62667621Y-69142500D03*
D36*
X73443928Y-58366193D03*
%TD*%
D18*
%TO.C,SW3*%
X65327621Y-46902500D03*
X77827621Y-46902500D03*
X65327621Y-51902500D03*
X77827621Y-51902500D03*
%TD*%
D13*
%TO.C,REF\u002A\u002A*%
X245607621Y-116142500D03*
D14*
X243067621Y-116142500D03*
X240527621Y-116142500D03*
X237987621Y-116142500D03*
X235447621Y-116142500D03*
X232907621Y-116142500D03*
X230367621Y-116142500D03*
%TD*%
D12*
%TO.C,R13*%
X43197621Y-89142500D03*
D15*
X58437621Y-89142500D03*
%TD*%
D11*
%TO.C,C12*%
X259817621Y-86392500D03*
D12*
X259817621Y-88892500D03*
%TD*%
%TO.C,C16*%
X73067621Y-94892500D03*
X70567621Y-94892500D03*
%TD*%
D23*
%TO.C,R4*%
X257567621Y-35642500D03*
D30*
X272807621Y-35642500D03*
%TD*%
D12*
%TO.C,R15*%
X106817621Y-126642500D03*
D15*
X122057621Y-126642500D03*
%TD*%
D12*
%TO.C,R2*%
X71151314Y-68978807D03*
D36*
X81927621Y-58202500D03*
%TD*%
M02*
